<svg class="svg-icon" style="width: 1em; height: 1em;vertical-align: middle;fill: currentColor;overflow: hidden;" viewBox="0 0 1024 1024" version="1.1" xmlns="http://www.w3.org/2000/svg"><path d="M716.791973 307.228095l51.197993 0 0 51.197993-51.197993 0 0-51.197993z"  /><path d="M716.791973 409.624081l51.197993 0 0 51.197993-51.197993 0 0-51.197993z"  /><path d="M716.791973 512.020068l51.197993 0 0 51.197993-51.197993 0 0-51.197993z"  /><path d="M716.791973 614.416054l51.197993 0 0 51.197993-51.197993 0 0-51.197993z"  /><path d="M716.791973 819.208027l51.197993 0 0 51.197993-51.197993 0 0-51.197993z"  /><path d="M716.791973 716.812041l51.197993 0 0 51.197993-51.197993 0 0-51.197993z"  /><path d="M307.208027 307.228095l51.197993 0 0 51.197993-51.197993 0 0-51.197993z"  /><path d="M307.208027 409.624081l51.197993 0 0 51.197993-51.197993 0 0-51.197993z"  /><path d="M307.208027 512.020068l51.197993 0 0 51.197993-51.197993 0 0-51.197993z"  /><path d="M307.208027 614.416054l51.197993 0 0 51.197993-51.197993 0 0-51.197993z"  /><path d="M307.208027 819.208027l51.197993 0 0 51.197993-51.197993 0 0-51.197993z"  /><path d="M307.208027 716.812041l51.197993 0 0 51.197993-51.197993 0 0-51.197993z"  /><path d="M204.812041 307.228095l51.197993 0 0 51.197993-51.197993 0 0-51.197993z"  /><path d="M204.812041 409.624081l51.197993 0 0 51.197993-51.197993 0 0-51.197993z"  /><path d="M204.812041 512.020068l51.197993 0 0 51.197993-51.197993 0 0-51.197993z"  /><path d="M204.812041 614.416054l51.197993 0 0 51.197993-51.197993 0 0-51.197993z"  /><path d="M204.812041 819.208027l51.197993 0 0 51.197993-51.197993 0 0-51.197993z"  /><path d="M204.812041 716.812041l51.197993 0 0 51.197993-51.197993 0 0-51.197993z"  /><path d="M409.604014 307.228095l51.197993 0 0 51.197993-51.197993 0 0-51.197993z"  /><path d="M409.604014 409.624081l51.197993 0 0 51.197993-51.197993 0 0-51.197993z"  /><path d="M409.604014 512.020068l51.197993 0 0 51.197993-51.197993 0 0-51.197993z"  /><path d="M409.604014 614.416054l51.197993 0 0 51.197993-51.197993 0 0-51.197993z"  /><path d="M409.604014 819.208027l51.197993 0 0 51.197993-51.197993 0 0-51.197993z"  /><path d="M409.604014 716.812041l51.197993 0 0 51.197993-51.197993 0 0-51.197993z"  /><path d="M947.182943 972.802007l-25.598997 0 0-691.172909c0-39.064069-29.029262-79.305692-66.096609-91.695606l-241.09135-80.380849 0-83.964709c0-8.089283-3.839849-15.717784-10.341995-20.530395s-14.898616-6.297353-22.629513-3.993443l-462.932255 138.900156c-37.732921 11.314757-67.274163 51.044399-67.274163 90.415656l0 742.370902-25.598997 0c-14.130646 0-25.598997 11.46835-25.598997 25.598997s11.46835 25.598997 25.598997 25.598997l921.563878 0c14.130646 0 25.598997-11.46835 25.598997-25.598997s-11.46835-25.598997-25.598997-25.598997zM839.308771 238.520388c16.280962 5.426987 31.077182 25.957383 31.077182 43.10871l0 691.172909-255.989966 0 0-809.235481 224.912784 74.953862zM102.416054 230.431105c0-16.84414 14.693824-36.555367 30.821192-41.367979l429.960747-129.018943 0 912.757823-460.781939 0 0-742.370902z"  /></svg>