<svg class="svg-icon" style="width: 1em; height: 1em;vertical-align: middle;fill: currentColor;overflow: hidden;" viewBox="0 0 1024 1024" version="1.1" xmlns="http://www.w3.org/2000/svg"><path d="M674.4 415.1h-316c-11 0-20 9-20 20s9 20 20 20h316c11 0 20-9 20-20s-8.9-20-20-20zM674.4 533.5h-316c-11 0-20 9-20 20s9 20 20 20h316c11 0 20-9 20-20 0-11.1-8.9-20-20-20zM530.6 651.8H358.4c-11 0-20 9-20 20s9 20 20 20h172.2c11 0 20-9 20-20s-9-20-20-20z"  /><path d="M731.2 206.5h-80.4v-1.8c0-22.1-17.9-40-40-40H413.3c-22.1 0-40 17.9-40 40v1.8h-80.5c-30.7 0-55.7 25-55.7 55.7v541.4c0 30.7 25 55.7 55.7 55.7h438.5c30.7 0 55.7-25 55.7-55.7V262.2c-0.1-30.7-25.1-55.7-55.8-55.7z m-317.9-1.8h197.6V264H413.3v-59.3z m336.5 598.9c0 10.2-8.3 18.6-18.6 18.6H292.8c-10.2 0-18.6-8.3-18.6-18.6V262.2c0-10.2 8.3-18.6 18.6-18.6h80.5V264c0 22.1 17.9 40 40 40h197.6c22.1 0 40-17.9 40-40v-20.4h80.4c10.2 0 18.6 8.3 18.6 18.6v541.4z"  /></svg>